<svg xmlns="http://www.w3.org/2000/svg" viewBox="0 0 1200 300" width="1200" height="300">
<defs>
  <clipPath id="shield">
    <path d="M 432.00 24.90 L 452.00 24.50 L 460.00 25.47 L 474.00 25.53 L 520.00 29.60 L 545.00 32.72 L 598.00 41.70 L 651.00 53.86 L 687.00 63.90 L 728.00 76.50 L 754.00 85.17 L 794.00 99.90 L 829.00 113.90 L 856.00 125.74 L 863.07 130.00 L 864.49 135.00 L 864.46 698.00 L 860.28 739.00 L 854.10 770.00 L 846.49 798.00 L 835.10 829.00 L 823.24 854.00 L 808.11 881.00 L 794.00 902.73 L 778.35 924.00 L 762.33 944.00 L 739.45 970.00 L 715.00 994.49 L 690.38 1017.00 L 670.00 1034.33 L 636.00 1060.39 L 612.00 1077.50 L 574.00 1102.48 L 545.00 1120.11 L 506.00 1142.24 L 480.00 1156.26 L 444.00 1173.71 L 441.00 1173.19 L 425.00 1165.24 L 352.00 1125.11 L 301.00 1094.11 L 265.00 1070.11 L 227.85 1043.00 L 189.00 1011.33 L 164.50 989.00 L 139.00 963.50 L 127.55 951.00 L 106.65 926.00 L 87.00 899.76 L 64.31 864.00 L 46.76 830.00 L 35.17 801.00 L 28.90 782.00 L 22.37 758.00 L 15.72 720.00 L 13.51 693.00 L 13.50 136.00 L 14.40 131.00 L 21.00 126.74 L 48.00 114.90 L 130.00 83.17 L 174.00 68.90 L 225.00 54.86 L 272.00 43.70 L 328.00 33.72 L 379.00 27.60 L 409.00 25.53 L 432.00 24.90 Z" />
  </clipPath>
</defs>
  <!-- Scaled Logo -->
  <g transform="translate(40.00, 40.00) scale(0.18612521)">
<!-- Background Shield Split -->
  <rect x="0" y="0" width="440.0" height="1182" fill="#26753f" clip-path="url(#shield)" />
  <rect x="440.0" y="0" width="440.0" height="1182" fill="#1b532d" clip-path="url(#shield)" />
  <!-- River -->
  <path d="M 631.00 340.85 L 638.83 342.00 L 635.08 347.00 L 602.00 375.05 L 590.19 389.00 L 577.89 408.00 L 567.47 433.00 L 547.37 500.00 L 536.00 520.72 L 522.00 539.05 L 499.00 561.71 L 472.00 581.75 L 388.00 628.25 L 360.00 646.81 L 339.65 667.00 L 330.28 687.00 L 329.37 700.00 L 332.77 714.00 L 338.75 725.00 L 349.00 737.21 L 375.00 756.89 L 426.00 785.96 L 435.00 787.70 L 453.00 783.63 L 466.00 788.96 L 471.32 796.00 L 474.75 810.00 L 478.00 815.32 L 526.00 849.96 L 553.96 878.00 L 573.63 908.00 L 584.41 936.00 L 588.77 959.00 L 589.37 983.00 L 584.28 1018.00 L 578.00 1032.75 L 548.00 1053.96 L 489.06 1089.00 L 452.00 1108.83 L 440.00 1110.30 L 358.00 1065.11 L 283.00 1015.81 L 223.00 968.58 L 175.71 923.00 L 152.00 895.85 L 130.96 868.00 L 101.30 818.00 L 88.37 788.00 L 79.17 760.00 L 71.72 726.00 L 71.70 712.00 L 82.81 692.00 L 105.79 667.00 L 128.00 649.75 L 158.00 632.25 L 190.00 617.70 L 222.00 605.84 L 365.00 562.63 L 412.00 542.43 L 446.17 523.00 L 469.95 505.00 L 485.96 488.00 L 502.96 463.00 L 532.25 412.00 L 556.00 382.88 L 574.05 368.00 L 592.00 356.57 L 615.00 345.75 L 631.00 340.85 Z" fill="#1f7cb8" fill-rule="evenodd" />
  <!-- Hunter (White, Solid Silhouette) -->
  <path d="M 645.59 380.18 L 649.49 380.07 L 658.48 381.45 L 660.43 381.56 L 663.16 381.45 L 672.93 380.04 L 675.27 380.07 L 677.23 380.39 L 680.35 381.47 L 683.87 383.61 L 686.21 386.17 L 688.18 389.57 L 688.89 391.91 L 689.47 395.82 L 689.95 404.02 L 690.28 405.98 L 690.94 407.15 L 693.46 408.71 L 694.68 409.88 L 695.59 411.45 L 696.05 413.01 L 696.14 414.96 L 695.85 416.52 L 693.74 420.43 L 693.81 421.21 L 695.21 425.12 L 695.26 429.02 L 694.10 432.15 L 692.34 434.49 L 690.12 436.29 L 686.60 437.67 L 685.82 438.37 L 683.73 443.48 L 682.70 445.33 L 680.45 448.55 L 676.83 452.46 L 676.30 454.02 L 676.42 457.15 L 677.07 459.10 L 678.01 459.63 L 680.35 459.68 L 686.21 460.93 L 687.38 460.70 L 688.19 459.88 L 713.26 407.93 L 718.33 398.16 L 719.02 397.60 L 719.80 397.34 L 721.37 397.55 L 727.62 400.44 L 728.75 401.29 L 729.29 402.07 L 729.44 403.24 L 729.07 404.41 L 717.29 429.02 L 717.49 430.59 L 719.26 432.93 L 720.48 435.66 L 720.78 438.01 L 720.48 441.13 L 719.32 443.87 L 708.77 464.96 L 708.24 466.52 L 708.51 467.70 L 711.13 470.82 L 712.24 472.77 L 713.18 475.51 L 713.72 478.63 L 713.74 526.68 L 713.28 528.63 L 711.99 529.71 L 709.65 530.00 L 613.95 529.99 L 611.99 529.67 L 611.21 529.12 L 610.64 528.24 L 610.23 525.90 L 610.23 479.80 L 610.83 475.51 L 611.99 472.46 L 613.25 470.43 L 614.57 468.87 L 616.29 467.51 L 618.63 466.13 L 628.40 463.38 L 643.24 459.74 L 645.59 459.39 L 646.37 458.99 L 647.08 457.54 L 647.33 455.20 L 646.98 453.24 L 646.37 452.32 L 643.24 449.06 L 641.11 446.21 L 638.95 442.09 L 637.40 438.40 L 636.60 437.67 L 633.87 436.66 L 631.91 435.37 L 629.88 433.32 L 628.72 431.37 L 627.99 429.02 L 627.84 426.29 L 628.21 424.34 L 629.45 421.21 L 629.51 420.43 L 627.60 416.91 L 627.06 414.18 L 627.34 412.23 L 628.01 410.73 L 631.06 407.54 L 631.52 406.66 L 632.62 393.48 L 633.42 390.35 L 634.40 388.01 L 636.06 385.66 L 639.34 382.63 L 642.07 381.19 L 645.59 380.18 Z" fill="#ffffff" fill-rule="evenodd" />
  <!-- White Inner Border -->
  <path d="M 419.00 62.90 L 459.00 62.53 L 466.00 63.47 L 478.00 63.53 L 484.00 64.40 L 493.00 64.60 L 523.00 67.72 L 569.00 74.90 L 628.00 87.37 L 687.00 103.50 L 713.00 111.50 L 752.00 124.90 L 787.00 138.29 L 809.00 147.74 L 824.00 155.41 L 826.00 157.78 L 826.49 161.00 L 826.46 699.00 L 823.28 730.00 L 819.10 753.00 L 812.10 780.00 L 804.10 803.00 L 795.24 824.00 L 785.00 844.44 L 770.48 869.00 L 754.11 893.00 L 740.33 911.00 L 715.45 940.00 L 682.38 973.00 L 657.00 995.33 L 634.00 1014.12 L 603.00 1037.11 L 564.76 1063.00 L 536.00 1081.11 L 504.00 1099.69 L 463.00 1122.24 L 447.00 1130.22 L 444.00 1131.10 L 441.00 1130.38 L 429.00 1124.24 L 363.00 1087.11 L 329.00 1066.48 L 282.00 1035.11 L 253.00 1014.12 L 217.00 985.33 L 199.00 969.43 L 179.00 950.21 L 160.55 931.00 L 133.65 899.00 L 117.50 877.00 L 98.31 847.00 L 81.76 815.00 L 69.16 783.00 L 63.90 766.00 L 59.37 748.00 L 55.72 730.00 L 53.60 715.00 L 51.51 693.00 L 51.50 162.00 L 52.40 157.00 L 55.00 154.80 L 70.00 147.32 L 121.00 126.90 L 174.00 108.50 L 215.00 96.63 L 271.00 82.90 L 306.00 75.90 L 331.00 71.72 L 369.00 66.60 L 390.00 64.60 L 419.00 62.90 L 425.00 78.90 L 421.00 79.47 L 406.00 79.53 L 380.00 81.60 L 340.00 86.72 L 305.00 92.88 L 253.00 103.86 L 197.00 118.90 L 146.00 135.17 L 117.00 145.90 L 87.00 157.90 L 72.00 164.74 L 69.00 166.69 L 68.06 168.00 L 67.50 172.00 L 67.54 694.00 L 68.72 707.00 L 71.72 727.00 L 76.93 752.00 L 80.51 765.00 L 87.17 785.00 L 94.32 803.00 L 104.76 825.00 L 117.89 848.00 L 130.00 866.73 L 144.88 887.00 L 158.67 904.00 L 174.55 922.00 L 205.50 953.00 L 217.62 964.00 L 244.00 986.33 L 270.00 1006.40 L 300.27 1028.00 L 325.00 1044.48 L 353.00 1062.11 L 402.00 1090.69 L 434.00 1108.24 L 441.00 1111.70 L 444.00 1112.46 L 450.00 1110.24 L 488.00 1089.69 L 527.00 1067.11 L 551.00 1052.11 L 594.00 1023.11 L 621.00 1003.12 L 637.00 990.33 L 657.38 973.00 L 681.00 951.43 L 707.45 924.00 L 737.35 888.00 L 758.11 858.00 L 769.24 839.00 L 781.26 815.00 L 791.83 789.00 L 797.10 773.00 L 802.10 754.00 L 806.28 733.00 L 809.40 708.00 L 809.54 698.00 L 810.50 689.00 L 810.50 176.00 L 810.28 172.00 L 809.24 168.00 L 808.00 166.02 L 806.00 164.59 L 785.00 155.32 L 759.00 144.90 L 732.00 135.17 L 675.00 116.90 L 653.00 110.63 L 614.00 100.90 L 586.00 94.88 L 558.00 89.72 L 502.00 81.60 L 478.00 79.53 L 465.00 79.47 L 458.00 78.53 L 425.00 78.90 Z" fill="#ffffff" fill-rule="evenodd" />
  <!-- White Icons -->
  <path d="M 269.00 141.46 L 271.00 141.75 L 272.00 143.15 L 274.50 159.00 L 277.36 169.00 L 282.00 177.93 L 284.00 180.34 L 286.00 181.69 L 288.00 181.84 L 290.00 180.08 L 293.84 169.00 L 300.00 159.74 L 303.00 156.92 L 304.95 156.00 L 306.28 156.00 L 307.57 157.00 L 307.87 158.00 L 307.55 160.00 L 303.36 168.00 L 300.42 176.00 L 299.58 181.00 L 299.58 188.00 L 300.54 193.00 L 303.00 198.57 L 306.53 203.00 L 311.00 207.05 L 315.00 209.65 L 318.00 210.93 L 320.00 210.91 L 321.00 210.35 L 321.95 209.00 L 322.47 206.00 L 322.42 202.00 L 320.77 188.00 L 321.13 186.00 L 322.00 184.79 L 324.00 185.12 L 327.02 188.00 L 330.00 189.57 L 333.00 189.80 L 336.00 189.04 L 339.00 187.59 L 342.00 185.38 L 347.38 180.00 L 351.07 175.00 L 352.25 174.00 L 354.00 173.77 L 355.20 175.00 L 355.58 177.00 L 355.16 180.00 L 353.41 184.00 L 350.00 188.33 L 339.64 197.00 L 336.81 201.00 L 335.12 205.00 L 334.58 209.00 L 335.01 213.00 L 336.49 217.00 L 339.00 220.74 L 345.00 226.31 L 348.00 228.43 L 352.00 230.43 L 370.00 235.18 L 383.00 241.07 L 392.00 244.36 L 415.00 248.61 L 417.00 249.52 L 419.00 251.45 L 420.21 255.00 L 419.74 259.00 L 417.57 264.00 L 414.22 268.00 L 410.00 270.54 L 398.00 273.58 L 384.00 279.79 L 379.00 283.24 L 377.53 285.00 L 376.18 288.00 L 375.88 291.00 L 376.39 294.00 L 388.07 330.00 L 390.50 340.00 L 392.42 352.00 L 392.47 364.00 L 391.42 372.00 L 389.07 382.00 L 384.35 394.00 L 384.16 396.00 L 384.60 397.00 L 386.00 397.98 L 389.00 398.39 L 414.00 396.33 L 428.00 394.59 L 433.00 395.04 L 437.15 397.00 L 440.74 401.00 L 442.24 406.00 L 441.40 411.00 L 437.31 419.00 L 411.47 461.00 L 407.00 467.30 L 403.00 471.38 L 399.00 474.44 L 381.00 485.28 L 376.00 487.53 L 374.00 487.42 L 373.00 486.85 L 371.86 485.00 L 371.58 483.00 L 372.53 477.00 L 374.87 471.00 L 377.00 467.74 L 380.00 464.82 L 384.00 462.53 L 392.77 459.00 L 395.00 457.29 L 397.00 454.93 L 402.21 446.00 L 412.60 425.00 L 413.51 422.00 L 413.60 420.00 L 413.00 418.53 L 412.00 417.70 L 410.00 417.46 L 408.00 417.85 L 373.00 430.18 L 358.00 434.46 L 353.00 434.67 L 344.00 432.15 L 341.00 432.07 L 325.00 438.82 L 317.00 441.36 L 309.00 443.07 L 300.00 444.33 L 285.00 445.46 L 258.00 445.67 L 242.00 447.59 L 236.00 449.51 L 233.00 451.71 L 230.21 455.00 L 220.00 471.72 L 214.25 479.00 L 210.00 483.28 L 202.70 489.00 L 196.00 493.21 L 174.00 502.35 L 169.00 504.92 L 162.00 509.75 L 157.00 514.70 L 153.93 519.00 L 150.54 526.00 L 140.46 557.00 L 137.21 565.00 L 133.21 573.00 L 128.63 580.00 L 123.00 586.47 L 118.00 590.41 L 116.00 591.25 L 114.00 591.18 L 112.46 590.00 L 111.57 587.00 L 111.53 579.00 L 112.31 573.00 L 114.21 568.00 L 120.00 562.39 L 122.73 559.00 L 125.79 552.00 L 129.07 538.00 L 132.93 507.00 L 134.61 499.00 L 136.18 496.00 L 139.00 493.24 L 155.00 483.44 L 160.00 479.45 L 164.19 474.00 L 166.29 468.00 L 166.34 458.00 L 163.50 438.00 L 163.66 423.00 L 165.84 413.00 L 165.82 411.00 L 165.43 410.00 L 164.00 408.72 L 157.00 406.40 L 152.00 403.77 L 148.82 401.00 L 146.13 397.00 L 144.01 391.00 L 143.58 385.00 L 144.60 380.00 L 147.00 375.30 L 149.00 373.81 L 151.00 374.07 L 152.00 375.08 L 155.54 382.00 L 157.78 385.00 L 161.00 388.05 L 165.00 390.63 L 169.00 392.42 L 172.00 393.18 L 175.00 393.36 L 178.00 392.88 L 181.00 391.63 L 194.00 384.27 L 206.00 379.50 L 216.00 376.62 L 247.00 369.85 L 259.00 366.79 L 275.00 361.46 L 290.00 355.27 L 301.74 349.00 L 313.43 340.00 L 317.08 336.00 L 321.00 330.70 L 324.00 325.44 L 325.82 321.00 L 328.50 311.00 L 329.47 304.00 L 329.47 282.00 L 328.58 274.00 L 328.19 261.00 L 327.13 259.00 L 326.00 258.15 L 316.00 255.65 L 308.00 251.77 L 304.61 249.00 L 301.95 246.00 L 299.32 242.00 L 298.68 240.00 L 299.00 238.29 L 300.00 237.10 L 303.00 235.96 L 315.00 234.83 L 326.00 235.52 L 328.00 235.09 L 328.47 234.00 L 327.07 232.00 L 323.25 229.00 L 307.00 219.17 L 295.00 210.28 L 280.60 196.00 L 276.00 189.74 L 272.76 184.00 L 270.10 178.00 L 268.26 173.00 L 266.93 167.00 L 265.66 157.00 L 265.58 153.00 L 266.99 144.00 L 268.00 142.18 L 269.00 141.46 Z" fill="#ffffff" fill-rule="evenodd" />
  <path d="M 555.00 618.90 L 560.00 618.50 L 624.00 618.50 L 628.00 618.70 L 631.00 619.71 L 633.45 622.00 L 635.43 626.00 L 650.93 679.00 L 653.00 682.82 L 655.00 684.04 L 657.00 684.42 L 668.00 684.59 L 687.00 686.10 L 690.00 685.10 L 690.82 684.00 L 691.38 682.00 L 691.61 657.00 L 695.46 638.00 L 698.00 633.74 L 703.07 629.00 L 706.00 627.43 L 709.00 626.50 L 711.00 626.43 L 712.56 627.00 L 713.95 629.00 L 713.70 633.00 L 712.00 635.75 L 707.87 639.00 L 706.17 641.00 L 705.20 643.00 L 704.60 646.00 L 704.74 650.00 L 706.39 657.00 L 706.79 685.00 L 708.00 687.34 L 710.00 688.66 L 723.00 691.64 L 729.00 693.54 L 733.93 696.00 L 737.32 699.00 L 739.65 703.00 L 740.42 707.00 L 740.46 721.00 L 739.66 724.00 L 738.50 725.00 L 737.00 725.23 L 724.00 721.80 L 711.00 721.54 L 704.00 722.64 L 696.00 725.36 L 689.00 728.92 L 685.00 731.75 L 679.00 737.31 L 673.21 744.00 L 670.79 748.00 L 667.54 755.00 L 665.15 763.00 L 664.19 769.00 L 663.00 771.13 L 661.00 772.19 L 658.00 772.50 L 636.00 772.50 L 632.00 771.85 L 630.18 770.00 L 629.62 768.00 L 629.34 755.00 L 627.61 746.00 L 625.64 740.00 L 621.21 731.00 L 617.00 724.28 L 613.47 720.00 L 606.00 712.75 L 599.00 707.92 L 592.00 704.36 L 583.00 701.23 L 577.00 699.93 L 567.00 698.70 L 555.00 699.80 L 545.00 702.21 L 538.00 704.81 L 528.00 710.01 L 526.00 710.01 L 524.02 709.00 L 521.19 705.00 L 520.53 703.00 L 520.51 701.00 L 521.23 699.00 L 522.71 697.00 L 527.00 693.71 L 537.00 688.16 L 539.07 685.00 L 547.88 627.00 L 548.90 624.00 L 550.16 622.00 L 552.38 620.00 L 555.00 618.90 L 566.00 633.87 L 564.00 634.88 L 562.98 636.00 L 561.64 640.00 L 556.80 677.00 L 556.93 680.00 L 558.07 682.00 L 561.00 683.34 L 575.00 684.50 L 630.00 684.49 L 633.00 684.08 L 635.00 682.53 L 635.46 681.00 L 635.07 678.00 L 625.79 645.00 L 623.39 638.00 L 621.00 634.75 L 619.00 633.85 L 616.00 633.51 L 570.00 633.50 L 566.00 633.87 Z" fill="#ffffff" fill-rule="evenodd" />
  <path d="M 493.00 135.34 L 495.00 135.30 L 497.00 136.59 L 508.00 148.47 L 525.00 163.27 L 535.00 170.80 L 548.50 180.00 L 554.00 184.53 L 561.63 193.00 L 573.20 211.00 L 577.00 215.98 L 580.00 218.70 L 584.00 220.66 L 588.00 221.14 L 592.00 220.31 L 605.00 215.80 L 611.00 215.67 L 616.00 217.13 L 623.12 221.00 L 624.27 222.00 L 625.02 224.00 L 624.60 225.00 L 623.34 226.00 L 617.00 229.05 L 612.98 233.00 L 611.63 235.00 L 610.99 237.00 L 611.41 239.00 L 612.28 240.00 L 615.00 241.24 L 625.00 242.96 L 634.00 245.23 L 661.00 255.82 L 674.00 259.50 L 676.25 261.00 L 676.31 262.00 L 675.74 263.00 L 671.00 266.25 L 661.00 270.49 L 650.00 273.25 L 641.00 274.46 L 625.00 274.33 L 607.00 270.78 L 595.00 270.33 L 581.00 267.04 L 576.00 267.26 L 564.00 271.32 L 559.00 273.92 L 555.21 278.00 L 548.00 288.60 L 545.00 291.14 L 542.00 292.25 L 535.00 292.46 L 529.00 291.58 L 521.00 288.64 L 516.00 285.77 L 510.00 280.26 L 506.79 275.00 L 504.32 268.00 L 504.25 266.00 L 505.14 264.00 L 506.47 263.00 L 509.00 262.12 L 528.00 259.43 L 537.00 257.40 L 540.00 255.89 L 542.22 254.00 L 543.54 252.00 L 544.07 249.00 L 543.47 247.00 L 542.00 245.06 L 534.00 238.20 L 527.00 229.72 L 519.93 219.00 L 512.00 205.26 L 501.00 189.75 L 496.36 182.00 L 492.39 171.00 L 490.58 159.00 L 490.66 142.00 L 491.72 137.00 L 493.00 135.34 Z" fill="#ffffff" fill-rule="evenodd" />
  <path d="M 245.00 751.99 L 253.00 753.69 L 260.00 756.36 L 264.74 759.00 L 275.00 766.23 L 278.00 767.82 L 285.00 769.22 L 295.00 770.30 L 311.00 774.21 L 322.00 778.35 L 335.00 784.92 L 343.33 791.00 L 346.38 794.00 L 348.56 797.00 L 349.04 799.00 L 348.52 801.00 L 343.30 806.00 L 341.95 808.00 L 342.31 810.00 L 346.58 813.00 L 346.60 815.00 L 345.02 817.00 L 342.50 819.00 L 332.00 825.64 L 321.00 829.74 L 318.00 830.23 L 315.00 829.96 L 312.00 828.87 L 309.00 826.98 L 306.81 825.00 L 303.68 821.00 L 301.84 818.00 L 300.21 814.00 L 297.83 804.00 L 297.00 802.55 L 296.00 802.68 L 295.00 803.95 L 294.00 806.93 L 293.71 813.00 L 295.85 823.00 L 299.50 831.00 L 299.67 833.00 L 299.22 834.00 L 298.00 835.02 L 295.00 835.90 L 286.00 836.67 L 282.00 837.73 L 279.00 839.66 L 273.00 845.25 L 270.00 847.44 L 263.00 851.19 L 260.00 851.98 L 258.00 851.35 L 257.00 849.95 L 256.53 846.00 L 257.16 839.00 L 256.53 837.00 L 255.00 835.58 L 253.00 834.85 L 232.00 831.31 L 229.00 831.55 L 217.00 835.04 L 214.00 835.32 L 212.06 835.00 L 210.63 834.00 L 210.20 833.00 L 211.80 827.00 L 210.98 825.00 L 209.00 823.59 L 200.00 819.36 L 191.00 816.42 L 188.00 816.20 L 185.00 817.17 L 173.06 828.00 L 166.00 832.24 L 159.00 834.79 L 157.00 834.86 L 155.00 833.98 L 154.02 832.00 L 154.18 829.00 L 156.21 821.00 L 160.74 808.00 L 161.24 805.00 L 160.74 801.00 L 155.85 788.00 L 153.51 779.00 L 153.45 776.00 L 154.00 774.76 L 155.00 773.95 L 157.00 773.76 L 160.00 774.54 L 169.00 778.92 L 175.00 783.12 L 183.00 790.05 L 186.00 791.90 L 189.00 792.58 L 192.00 792.12 L 213.00 783.54 L 237.00 776.07 L 240.00 774.71 L 241.58 773.00 L 242.40 770.00 L 241.23 755.00 L 242.26 753.00 L 245.00 751.99 L 320.00 791.77 L 317.80 794.00 L 317.36 796.00 L 317.80 798.00 L 319.00 799.52 L 321.00 800.66 L 323.00 800.84 L 325.00 800.18 L 326.32 799.00 L 327.24 797.00 L 326.92 794.00 L 326.00 792.63 L 324.00 791.37 L 322.00 791.15 L 320.00 791.77 Z" fill="#ffffff" fill-rule="evenodd" />
  <path d="M 394.00 800.98 L 399.00 800.67 L 412.00 801.77 L 418.00 803.99 L 424.00 804.99 L 426.84 807.00 L 427.90 810.00 L 427.00 813.02 L 425.00 814.65 L 419.00 816.75 L 417.20 819.00 L 411.56 837.00 L 411.35 840.00 L 412.00 841.16 L 414.00 841.79 L 427.00 839.47 L 429.00 839.66 L 431.00 840.87 L 432.43 843.00 L 439.59 859.00 L 443.93 867.00 L 449.00 874.75 L 458.08 887.00 L 466.60 897.00 L 474.00 904.63 L 475.99 908.00 L 477.42 916.00 L 477.58 928.00 L 479.42 948.00 L 479.58 956.00 L 481.42 978.00 L 481.58 987.00 L 483.45 1008.00 L 483.12 1012.00 L 481.53 1016.00 L 479.00 1018.85 L 476.00 1020.54 L 472.00 1021.20 L 468.00 1019.86 L 464.05 1016.00 L 462.12 1012.00 L 454.20 946.00 L 452.84 938.00 L 452.00 936.05 L 451.00 935.46 L 450.00 936.05 L 449.16 938.00 L 447.80 947.00 L 442.34 1000.00 L 441.18 1010.00 L 440.40 1013.00 L 438.89 1016.00 L 436.10 1019.00 L 433.00 1020.65 L 430.00 1021.23 L 427.00 1020.81 L 424.00 1019.08 L 422.08 1017.00 L 420.46 1014.00 L 419.71 1011.00 L 419.53 1007.00 L 422.42 971.00 L 422.58 960.00 L 423.42 953.00 L 423.58 942.00 L 424.42 935.00 L 424.58 924.00 L 425.47 916.00 L 425.33 864.00 L 424.00 861.28 L 421.00 860.40 L 406.00 862.33 L 399.00 862.20 L 394.00 860.49 L 391.94 859.00 L 390.46 857.00 L 389.55 853.00 L 390.15 846.00 L 391.57 841.00 L 398.71 822.00 L 398.34 820.00 L 397.28 819.00 L 392.00 817.32 L 389.92 816.00 L 390.50 815.00 L 392.00 814.50 L 393.00 813.53 L 394.30 810.00 L 394.16 808.00 L 393.34 806.00 L 392.00 804.50 L 390.50 804.00 L 389.92 803.00 L 391.21 802.00 L 394.00 800.98 Z" fill="#ffffff" fill-rule="evenodd" />
  <path d="M 561.00 712.93 L 568.00 712.78 L 576.00 713.96 L 581.00 715.23 L 589.39 719.00 L 597.00 724.12 L 603.08 730.00 L 609.21 739.00 L 612.82 747.00 L 615.07 756.00 L 615.42 766.00 L 613.99 775.00 L 610.87 784.00 L 607.02 791.00 L 602.00 797.41 L 595.50 803.00 L 587.00 808.24 L 579.00 811.36 L 569.00 813.22 L 562.00 813.22 L 550.00 810.79 L 540.61 807.00 L 532.00 801.08 L 526.92 796.00 L 520.79 787.00 L 518.36 782.00 L 516.26 776.00 L 514.58 766.00 L 514.93 756.00 L 517.35 746.00 L 519.36 741.00 L 522.20 736.00 L 525.92 731.00 L 530.00 726.53 L 534.00 723.21 L 539.00 719.92 L 544.00 717.36 L 552.00 714.53 L 561.00 712.93 L 560.00 740.78 L 556.00 742.01 L 552.34 744.00 L 549.00 746.80 L 546.56 750.00 L 544.41 754.00 L 542.96 759.00 L 542.61 764.00 L 543.26 768.00 L 545.66 774.00 L 548.64 778.00 L 553.00 781.77 L 558.00 784.28 L 563.00 785.33 L 569.00 785.20 L 575.00 783.36 L 580.00 780.22 L 582.18 778.00 L 584.19 775.00 L 587.12 768.00 L 587.32 759.00 L 585.56 753.00 L 583.77 750.00 L 581.00 746.70 L 575.00 742.46 L 569.00 740.62 L 565.00 740.36 L 560.00 740.78 Z" fill="#ffffff" fill-rule="evenodd" />
  <path d="M 709.00 734.96 L 715.00 734.50 L 723.00 734.96 L 731.00 737.36 L 738.00 741.05 L 744.06 746.00 L 749.00 752.30 L 752.21 758.00 L 754.85 766.00 L 755.50 772.00 L 754.85 781.00 L 752.46 789.00 L 749.00 795.70 L 743.48 802.00 L 738.00 806.44 L 732.00 809.64 L 724.00 812.20 L 719.00 812.50 L 709.00 812.20 L 700.00 809.43 L 695.31 807.00 L 688.80 802.00 L 683.20 795.00 L 680.10 789.00 L 677.96 782.00 L 677.50 777.00 L 677.96 767.00 L 680.18 759.00 L 683.20 753.00 L 688.67 746.00 L 693.54 742.00 L 701.00 737.59 L 709.00 734.96 L 714.00 755.96 L 710.00 757.07 L 706.00 759.27 L 703.05 762.00 L 701.00 764.98 L 699.60 768.00 L 698.68 772.00 L 698.68 776.00 L 699.60 780.00 L 701.11 783.00 L 704.00 786.45 L 707.17 789.00 L 711.00 790.74 L 716.00 791.46 L 720.00 791.15 L 723.00 790.16 L 727.00 787.95 L 731.00 783.93 L 733.74 778.00 L 734.31 772.00 L 733.01 767.00 L 729.95 762.00 L 726.00 758.59 L 720.00 756.18 L 717.00 755.75 L 714.00 755.96 Z" fill="#ffffff" fill-rule="evenodd" />
  <path d="M 443.00 837.95 L 446.00 837.51 L 468.00 837.54 L 471.00 837.80 L 475.00 838.88 L 480.00 841.27 L 484.00 844.55 L 487.00 848.02 L 490.66 854.00 L 493.65 860.00 L 497.36 870.00 L 499.50 878.00 L 501.42 891.00 L 501.47 909.00 L 500.04 922.00 L 498.41 927.00 L 496.90 929.00 L 495.00 930.37 L 492.00 931.20 L 488.00 930.37 L 485.24 928.00 L 483.90 925.00 L 483.69 921.00 L 485.34 907.00 L 485.42 900.00 L 483.50 886.00 L 481.00 877.50 L 479.00 874.90 L 477.88 875.00 L 476.91 877.00 L 476.00 888.32 L 475.00 889.66 L 474.00 889.93 L 472.00 888.94 L 466.00 882.30 L 460.00 874.72 L 452.00 862.74 L 446.34 853.00 L 441.01 842.00 L 441.00 839.88 L 441.46 839.00 L 443.00 837.95 Z" fill="#ffffff" fill-rule="evenodd" />
  <path d="M 449.00 782.96 L 453.00 782.83 L 457.00 783.64 L 461.10 785.00 L 465.00 787.05 L 467.29 789.00 L 469.60 792.00 L 473.50 799.00 L 474.29 802.00 L 471.91 815.00 L 468.73 822.00 L 466.00 825.30 L 462.00 828.43 L 458.00 830.40 L 454.00 831.33 L 450.00 831.41 L 446.00 830.57 L 442.00 828.59 L 438.70 826.00 L 435.57 822.00 L 433.60 818.00 L 432.15 812.00 L 431.76 806.00 L 431.00 804.29 L 429.00 802.56 L 422.89 800.00 L 421.80 799.00 L 421.12 797.00 L 422.00 795.08 L 423.00 794.38 L 425.00 793.74 L 432.00 792.87 L 434.00 791.65 L 438.00 787.98 L 442.00 785.37 L 449.00 782.96 Z" fill="#ffffff" fill-rule="evenodd" />
  </g>
  <!-- Title -->
  <text x="243.79" y="170" font-family="Segoe UI, sans-serif" font-weight="bold" font-size="80" fill="#2c406e">OFBilan</text>
  <!-- Separator -->
  <line x1="563.79" y1="70" x2="563.79" y2="230" stroke="#86b872" stroke-width="4" />
  <!-- Subtitle -->
  <text x="593.79" y="132" font-family="Segoe UI, sans-serif" font-size="44" fill="#2c406e">
    <tspan x="593.79" dy="0">Bilans d'activité &amp;</tspan>
    <tspan x="593.79" dy="54">Indicateurs de pilotage</tspan>
  </text>
</svg>
